<?xml version="1.0" standalone="no"?>
<!DOCTYPE svg PUBLIC "-//W3C//DTD SVG 20010904//EN"
 "http://www.w3.org/TR/2001/REC-SVG-20010904/DTD/svg10.dtd">
<svg version="1.0" xmlns="http://www.w3.org/2000/svg"
 width="450.000000pt" height="285.000000pt" viewBox="0 0 450.000000 285.000000"
 preserveAspectRatio="xMidYMid meet">
<metadata>
Created by potrace 1.10, written by Peter Selinger 2001-2011
</metadata>
<g transform="translate(0.000000,285.000000) scale(0.050000,-0.050000)"
fill="#ff0000" stroke="none">
<path d="M3318 4359 c-34 -22 -52 -1479 -19 -1567 22 -57 23 -57 147 -45 68 8
205 17 304 21 428 16 521 180 505 882 -10 434 -36 547 -140 610 -94 57 -736
137 -797 99z m573 -265 c50 -58 60 -159 58 -634 -1 -390 -53 -480 -278 -480
l-70 0 -5 561 c-7 645 -11 628 153 613 74 -7 110 -22 142 -60z m-431 -54 c0
-41 -48 -55 -70 -20 -17 27 6 60 41 60 16 0 29 -18 29 -40z m11 -321 c7 -11 2
-34 -12 -50 -19 -23 -17 -29 10 -29 35 0 34 -42 0 -54 -25 -8 -76 107 -59 134
16 26 44 26 61 -1z m-44 -163 c16 -60 -4 -74 -39 -27 -35 49 -36 71 0 71 15 0
33 -20 39 -44z m9 -502 c-12 -49 74 -133 124 -120 33 9 43 5 36 -16 -6 -15
-27 -25 -48 -22 -148 24 -168 38 -168 116 0 48 9 68 31 68 17 0 28 -11 25 -26z"/>
<path d="M4445 3575 c5 -790 6 -805 45 -805 39 0 40 15 45 805 l5 805 -50 0
-50 0 5 -805z"/>
<path d="M5156 4361 c-304 -41 -376 -201 -376 -840 0 -584 104 -755 456 -748
299 6 417 109 436 381 12 183 1 205 -109 220 -118 16 -143 -12 -143 -162 0
-286 -308 -308 -351 -24 -15 101 2 729 23 815 51 219 309 172 340 -62 17 -129
124 -187 227 -122 54 34 8 336 -69 454 -48 73 -246 113 -434 88z m-128 -216
c-5 -30 -13 -85 -17 -122 -10 -84 -22 -95 -64 -61 -30 25 -33 24 -22 -5 12
-32 -38 -71 -61 -47 -6 5 0 10 13 10 13 0 23 23 23 51 0 28 8 46 19 40 10 -6
23 -3 30 7 6 10 -3 23 -19 29 -17 7 -30 26 -30 44 0 17 9 26 20 19 11 -7 20 7
20 31 0 39 4 41 34 16 29 -23 32 -23 21 6 -13 36 1 62 26 46 9 -5 12 -34 7
-64z m-56 -257 c-7 -17 -12 -40 -12 -50 0 -10 -18 -18 -40 -18 -49 0 -50 15
-7 63 41 45 76 48 59 5z m596 -680 c20 -53 14 -88 -17 -88 -15 0 -34 18 -41
40 -22 68 33 114 58 48z m-70 -186 c24 -16 23 -23 -5 -51 -18 -19 -42 -28 -53
-21 -11 7 -20 -2 -20 -19 0 -17 -13 -31 -29 -31 -23 0 -19 16 15 69 49 76 52
78 92 53z"/>
<path d="M1236 2388 c-5 -10 -8 -175 -7 -368 l1 -350 160 7 c233 10 258 38
267 305 8 249 -6 330 -64 368 -52 34 -342 65 -357 38z m264 -118 c15 -19 26
-104 27 -229 3 -217 -12 -255 -107 -265 l-50 -6 -5 240 c-3 132 -1 251 4 265
13 35 101 31 131 -5z"/>
<path d="M1737 2386 c-4 -9 -4 -171 -1 -361 l6 -345 66 0 66 0 -6 355 -5 355
-60 6 c-32 3 -62 -1 -66 -10z"/>
<path d="M1992 2384 c-5 -9 -11 -169 -14 -355 l-4 -339 63 -6 62 -6 -11 256
c-13 302 3 297 101 -33 l63 -211 74 -6 74 -6 3 331 c2 182 4 342 5 356 1 14
-26 28 -63 31 l-65 7 -2 -227 -2 -226 -57 170 c-32 94 -58 189 -58 213 -1 54
-141 96 -169 51z"/>
<path d="M2606 2375 c-11 -14 -36 -124 -56 -245 -20 -121 -48 -260 -63 -310
-39 -130 -35 -160 19 -160 59 0 94 35 94 94 0 85 175 67 184 -19 6 -61 10 -65
76 -58 88 8 83 -4 52 124 -15 60 -48 208 -73 329 -52 254 -61 270 -149 270
-36 0 -74 -11 -84 -25z m114 -250 c12 -63 27 -140 33 -170 9 -50 5 -55 -50
-55 -79 0 -82 7 -60 160 32 220 44 230 77 65z"/>
<path d="M2998 2385 c-1 -8 -2 -168 -2 -355 l1 -340 59 -6 58 -6 -9 246 c-7
170 -3 240 11 226 23 -22 84 -321 84 -410 0 -61 33 -83 97 -66 48 12 51 21 84
246 40 274 61 276 50 5 l-9 -245 69 0 69 0 0 361 0 361 -94 -6 c-107 -7 -97
17 -147 -321 -33 -228 -47 -221 -89 49 -19 123 -39 235 -44 250 -11 28 -184
38 -188 11z"/>
<path d="M3660 2041 l0 -361 70 0 71 0 -6 355 -7 355 -64 6 -64 7 0 -362z"/>
<path d="M3860 2339 c0 -58 4 -62 65 -56 l65 7 0 -300 c0 -324 1 -327 93 -314
l62 9 -8 302 -7 303 76 -7 c74 -6 77 -4 70 50 l-6 57 -205 6 -205 5 0 -62z"/>
<path d="M4441 2371 c-13 -15 -32 -89 -43 -164 -10 -74 -38 -207 -61 -296 -59
-229 -59 -241 12 -241 49 0 61 10 76 66 24 96 178 91 195 -6 12 -67 153 -96
147 -30 -7 81 -137 653 -153 675 -26 34 -144 32 -173 -4z m123 -286 c33 -181
32 -185 -48 -185 -61 0 -61 1 -48 85 8 47 19 123 26 170 17 125 38 104 70 -70z"/>
<path d="M5115 2386 c-130 -34 -157 -566 -35 -676 138 -125 421 57 326 208
-40 63 -95 38 -106 -48 -11 -87 -72 -119 -131 -69 -35 29 -41 345 -9 429 30
78 126 64 140 -20 8 -48 21 -61 68 -67 l58 -6 -13 96 c-19 147 -122 199 -298
153z"/>
<path d="M5566 2371 c-64 -28 -64 -30 -70 -185 -16 -420 8 -490 176 -515 188
-28 234 54 224 406 -8 319 -95 396 -330 294z m190 -95 c28 -28 33 -450 6 -493
-13 -21 -32 -23 -75 -9 l-57 19 -6 226 c-6 263 39 350 132 257z"/>
<path d="M5991 2382 c-37 -60 -5 -699 35 -709 68 -18 74 0 76 253 2 276 30
247 81 -87 24 -159 41 -185 113 -166 43 11 45 18 87 302 36 244 63 205 47 -65
l-15 -230 73 0 72 0 -2 360 -3 360 -97 0 c-54 0 -99 -2 -100 -5 -1 -3 -16
-113 -35 -245 -35 -256 -64 -297 -88 -126 -8 58 -25 167 -37 241 l-22 135 -87
0 c-47 0 -92 -8 -98 -18z"/>
<path d="M6652 2383 c-6 -10 -9 -172 -7 -361 l5 -342 70 0 70 0 -3 355 -3 355
-60 6 c-33 3 -65 -2 -72 -13z"/>
<path d="M6975 2386 c-97 -25 -148 -513 -66 -638 66 -100 233 -108 325 -16 63
63 65 199 4 219 -56 17 -88 -18 -88 -97 0 -71 -65 -99 -121 -53 -35 29 -41
345 -9 429 30 78 126 64 140 -20 14 -81 120 -103 120 -24 0 175 -114 250 -305
200z"/>
<path d="M7392 2338 c-111 -132 -74 -256 126 -420 63 -52 85 -82 75 -107 -21
-54 -119 -33 -133 29 -17 74 -120 84 -120 13 0 -148 112 -218 275 -174 197 53
173 197 -61 369 -104 76 -106 222 -4 222 58 0 60 -3 60 -96 0 -171 111 -183
135 -14 31 211 -219 338 -353 178z"/>
</g>
</svg>
